<svg xmlns="http://www.w3.org/2000/svg" viewBox="0 0 1200 675" width="1200" height="675">
  <defs>
    <filter id="grain-smime-b" x="0" y="0" width="100%" height="100%">
      <feTurbulence type="fractalNoise" baseFrequency="0.85" numOctaves="2" seed="41" stitchTiles="stitch"/>
      <feColorMatrix values="0 0 0 0 1   0 0 0 0 1   0 0 0 0 1   0 0 0 0.16 0"/>
      <feComposite in2="SourceGraphic" operator="in"/>
    </filter>
    <linearGradient id="bg-smime-b" x1="0" y1="0" x2="1" y2="1">
      <stop offset="0" stop-color="#64748B"/>
      <stop offset="1" stop-color="#0F172A"/>
    </linearGradient>
  </defs>
  <rect width="1200" height="675" fill="url(#bg-smime-b)"/>
  <rect width="1200" height="675" fill="white" filter="url(#grain-smime-b)"/>
  <g transform="translate(120,200) scale(11.25)" fill="none" stroke="white" stroke-width="1.5" stroke-linecap="round" stroke-linejoin="round">
    <!-- lucide "shield-check" -->
    <path d="M20 13c0 5-3.5 7.5-7.66 8.95a1 1 0 0 1-.67-.01C7.5 20.5 4 18 4 13V6a1 1 0 0 1 1-1c2 0 4.5-1.2 6.24-2.72a1.17 1.17 0 0 1 1.52 0C14.51 3.81 17 5 19 5a1 1 0 0 1 1 1z"/>
    <path d="m9 12 2 2 4-4"/>
  </g>
  <text x="460" y="300" font-family="system-ui, -apple-system, 'Segoe UI', Roboto, sans-serif" font-size="60" font-weight="700" fill="white" dominant-baseline="middle">S/MIME</text>
  <text x="460" y="360" font-family="system-ui, -apple-system, 'Segoe UI', Roboto, sans-serif" font-size="24" font-weight="400" fill="white" fill-opacity="0.82" dominant-baseline="middle">Sign, encrypt, verify &amp; decrypt mail</text>
  <text x="460" y="396" font-family="system-ui, -apple-system, 'Segoe UI', Roboto, sans-serif" font-size="24" font-weight="400" fill="white" fill-opacity="0.82" dominant-baseline="middle">Your keys never leave the browser</text>
</svg>
